HIERARCHY
ROOT Hips
{
  OFFSET 57.7256 91.6981 22.7156
  CHANNELS 6 Xposition Yposition Zposition Zrotation Xrotation Yrotation
  JOINT ToSpine
  {
    OFFSET -2.69724 7.43032 -0.144315
    CHANNELS 3 Zrotation Xrotation Yrotation
    JOINT Spine
    {
      OFFSET -0.0310711 10.7595 1.96963
      CHANNELS 3 Zrotation Xrotation Yrotation
      JOINT Spine1
      {
        OFFSET 19.9056 3.91189 0.764692
        CHANNELS 3 Zrotation Xrotation Yrotation
        JOINT Neck
        {
          OFFSET 25.9749 7.03908 -0.130764
          CHANNELS 3 Zrotation Xrotation Yrotation
          JOINT Head
          {
            OFFSET 9.52751 0.295786 -0.907742
            CHANNELS 3 Zrotation Xrotation Yrotation
            End Site
            {
              OFFSET 16.4037 0.713936 2.7358
            }
          }
        }
        JOINT LeftShoulder
        {
          OFFSET 17.7449 4.33886 11.7777
          CHANNELS 3 Zrotation Xrotation Yrotation
          JOINT LeftArm
          {
            OFFSET 0.911315 1.27913 9.80584
            CHANNELS 3 Zrotation Xrotation Yrotation
            JOINT LeftForeArm
            {
              OFFSET 28.6126 1.18197 -3.53199
              CHANNELS 3 Zrotation Xrotation Yrotation
              JOINT LeftHand
              {
                OFFSET 27.5088 0.0218783 0.327423
                CHANNELS 3 Zrotation Xrotation Yrotation
                End Site
                {
                  OFFSET 18.6038 -0.000155887 0.382096
                }
              }
            }
          }
        }
        JOINT RightShoulder
        {
          OFFSET 17.1009 2.89543 -12.2328
          CHANNELS 3 Zrotation Xrotation Yrotation
          JOINT RightArm
          {
            OFFSET 1.4228 0.178766 -10.211
            CHANNELS 3 Zrotation Xrotation Yrotation
            JOINT RightForeArm
            {
              OFFSET 28.733 1.87905 2.64907
              CHANNELS 3 Zrotation Xrotation Yrotation
              JOINT RightHand
              {
                OFFSET 27.4588 0.290562 -0.101845
                CHANNELS 3 Zrotation Xrotation Yrotation
                End Site
                {
                  OFFSET 17.8396 -0.255518 -0.000602873
                }
              }
            }
          }
        }
      }
    }
  }
  JOINT LeftUpLeg
  {
    OFFSET -5.61296 -2.22332 -10.2353
    CHANNELS 3 Zrotation Xrotation Yrotation
    JOINT LeftLeg
    {
      OFFSET 2.56703 -44.7417 -7.93097
      CHANNELS 3 Zrotation Xrotation Yrotation
      JOINT LeftFoot
      {
        OFFSET 3.16933 -46.5642 -3.96578
        CHANNELS 3 Zrotation Xrotation Yrotation
        JOINT LeftToeBase
        {
          OFFSET 0.346054 -6.02161 12.8035
          CHANNELS 3 Zrotation Xrotation Yrotation
          End Site
          {
            OFFSET 0.134235 -1.35082 5.13018
          }
        }
      }
    }
  }
  JOINT RightUpLeg
  {
    OFFSET -5.7928 -1.72406 10.6446
    CHANNELS 3 Zrotation Xrotation Yrotation
    JOINT RightLeg
    {
      OFFSET -2.57161 -44.7178 -7.85259
      CHANNELS 3 Zrotation Xrotation Yrotation
      JOINT RightFoot
      {
        OFFSET -3.10148 -46.5936 -4.03391
        CHANNELS 3 Zrotation Xrotation Yrotation
        JOINT RightToeBase
        {
          OFFSET -0.0828122 -6.13587 12.8035
          CHANNELS 3 Zrotation Xrotation Yrotation
          End Site
          {
            OFFSET -0.131328 -1.35082 5.13018
          }
        }
      }
    }
  }
}
MOTION
Frames:	8
Frame Time:	0.0333333
-183.528 81.6772 -165.362 53.575 30.8024 6.16852 -70.1915 0 88.8779 151.738 53.5628 -68.8773 10.6806 23.8672 -1.2061 -152.769 37.881 145.224 172.865 78.207 -140.28 0.906703 -11.89 -18.6721 -102.461 53.5564 -143.885 -0.218771 37.2344 9.52747 17.6045 0.107705 2.34478 -0.282541 4.47676 23.1856 -53.5319 -33.5076 166.535 11.3067 -11.3765 37.0791 10.1602 -0.506961 -6.4393 -12.958 9.11857 87.7439 -11.3931 71.2892 -6.49442 7.57417 -0.521897 -1.02827 -8.8325 -42.7848 16.1733 9.18677 -26.4643 75.8392 156.914 79.2723 -153.003 -6.97348 -7.58156 1.09819 12.1584 -26.1511 -18.571 
-183.704 81.464 -166.049 52.6068 31.4063 5.99801 -70.1915 0 88.8779 150.687 52.7049 -68.2882 11.2891 22.8438 -0.939853 -152.753 37.5819 145.665 175.318 77.9868 -140.883 0.926604 -11.6056 -18.9212 -92.6169 51.0096 -159.463 -3.71179 36.3373 9.46191 14.3413 -0.107429 0.814125 -0.354528 4.41165 24.9827 -51.4438 -34.9169 164.074 8.35623 -7.86727 35.3153 17.2881 -1.27086 -9.0258 -12.0174 8.45183 88.8927 -12.0699 71.953 -6.5525 7.20873 -0.615542 -0.986863 -9.01461 -42.7743 15.1594 9.40541 -27.7744 75.5277 160.536 76.8886 -156.616 -6.54483 -7.13833 1.06772 12.4219 -28.2249 -16.5993 
-183.325 81.2726 -166.507 51.9934 31.3439 5.2346 -70.1915 0 88.8779 149.557 51.7961 -67.8412 10.3902 21.9354 -0.601544 -152.069 36.885 145.867 175.908 77.3837 -140.271 0.865523 -12.0802 -20.1833 -84.6427 48.2663 -168.323 -2.13096 38.0953 0.301908 9.57554 -0.309856 -1.96172 -0.42218 3.99957 27.8939 -49.9749 -36.6672 159.56 8.10795 -7.10294 37.0054 15.6425 -1.46176 -11.4207 -12.0146 9.01196 90.7693 -12.6487 72.276 -7.55015 7.32721 -1.36083 -1.00688 -8.97803 -42.2005 14.8681 9.84957 -28.1598 75.9561 162.509 74.9231 -158.206 -6.81961 -6.60494 1.07765 12.6941 -29.2162 -16.808 
-182.349 81.568 -166.899 51.5787 31.7064 4.00106 -70.1915 0 88.8779 146.9 51.2478 -65.5857 10.6329 20.0788 -0.924571 -153.972 36.7629 147.304 177.535 76.9697 -142.415 0.803017 -13.2182 -18.5113 -75.0181 38.6774 -175.211 6.88214 29.0105 -17.1809 8.54694 -0.240368 -1.49597 -0.348437 3.47739 27.984 -46.5262 -39.7978 158.831 7.82688 -6.29096 39.091 14.419 -1.4031 -11.9258 -13.4603 8.8857 93.0521 -11.7466 71.0076 -9.21129 7.19689 -2.47838 -1.00361 -8.87382 -40.973 14.339 9.86043 -29.4456 76.4684 162.921 74.3137 -158.163 -6.42224 -6.03105 1.04304 12.891 -30.3322 -15.7941 
-180.584 82.1131 -166.871 51.0285 31.3827 2.26256 -70.1915 0 88.8779 143.328 50.7614 -62.6038 10.0101 18.0457 -1.92984 -154.922 36.1985 148.251 179.485 76.3203 -144.447 0.842594 -13.0958 -17.3713 -68.9152 27.8072 -179.953 13.4511 23.4024 -26.116 11.1406 -0.597808 -4.31894 -0.34988 3.13057 29.5895 -42.432 -37.694 158.417 4.56659 -2.16583 41.4277 15.0968 -1.40262 -11.3783 -15.9291 8.80621 95.1592 -10.159 68.4571 -11.5253 7.00758 -2.14741 -0.981121 -8.87246 -41.3003 14.6646 9.69765 -29.9731 76.4478 162.034 74.9464 -156.141 -6.19571 -7.21012 1.04811 12.706 -29.6037 -15.8888 
-177.969 83.183 -166.582 50.3449 29.1765 -0.497182 -70.1915 0 88.8779 139.962 52.4741 -59.5846 10.2486 17.6023 -3.00961 -158.284 36.4071 150.896 179.84 75.974 -145.747 0.900804 -12.5997 -16.2795 -64.181 27.8141 176.836 17.7554 26.3031 -31.6752 12.836 -0.740786 -4.77229 -0.226261 2.35743 29.6675 -38.6548 -39.6938 158.494 -1.28739 3.94255 44.3204 18.2022 -1.45893 -9.77959 -20.1941 9.55362 98.3713 -7.98503 63.9136 -13.6507 6.90655 -3.12259 -0.982793 -8.53681 -39.7582 15.3269 8.55635 -29.4285 75.2874 157.688 77.8148 -149.163 -7.10327 -6.79603 1.09781 12.6858 -29.2936 -16.5212 
-174.088 84.4479 -165.726 50.6756 25.0015 -4.36458 -70.1915 0 88.8779 137.704 53.8915 -58.4799 7.90023 17.9372 -2.44342 -159.677 36.0065 155.57 -179.521 75.4216 -147.804 0.92648 -11.633 -18.7549 -59.9084 28.6405 -178.528 19.5728 26.2962 -34.7964 13.9523 -0.570359 -2.9035 -0.402022 3.27014 30.4487 -36.0938 -38.8771 155.643 -10.8037 12.2124 48.1065 18.9612 -1.68503 -10.7762 -27.7808 9.4786 98.8967 -6.00887 57.0976 -16.4516 6.00264 -5.08696 -0.938034 -7.7979 -37.6498 18.8682 4.1323 -26.8314 72.8021 145.103 82.162 -133.962 -6.81961 -4.62576 1.0536 12.0122 -27.0446 -15.6551 
-169.336 85.4876 -164.853 51.2138 19.3499 -6.98801 -70.1915 0 88.8779 137.251 56.1438 -57.0369 7.40231 18.7718 -2.02464 -160.731 35.6658 158.472 -174.547 75.2221 -153.838 1.02562 -10.3471 -22.6827 -57.8073 29.9521 -169.93 19.2352 29.0835 -31.7343 17.0091 -0.459351 -1.3518 -0.421294 3.31655 30.7758 -35.6571 -37.3228 153.442 -23.8181 21.7748 53.0859 24.2252 -2.81761 -13.7909 -34.0423 9.09579 95.4666 -5.01398 53.914 -14.1993 2.88751 -4.30157 -0.663095 -7.27629 -36.4048 22.4866 -3.09407 -23.0183 69.2324 122.436 84.9884 -111.69 -7.7044 -6.14235 1.13266 11.4481 -26.6095 -12.0701 
